
      <svg data-logo="logo" xmlns="http://www.w3.org/2000/svg" viewBox="0 0 148 43">
        <g id="logogram" transform="translate(0, 1) rotate(0) "><path d="M0 24.9721C0 22.9632 0.395671 20.9739 1.16447 19.118C1.93328 17.2619 3.06009 15.5755 4.48064 14.155C5.90118 12.7344 7.58755 11.6076 9.44355 10.8388C11.2996 10.0701 13.2889 9.67435 15.2979 9.67435V24.9721H0Z" fill="#442781"/><path d="M0 24.9721C0 26.9811 0.395671 28.9704 1.16447 30.8264C1.93328 32.6824 3.06009 34.3688 4.48064 35.7894C5.90118 37.2099 7.58755 38.3368 9.44355 39.1056C11.2996 39.8744 13.2889 40.27 15.2979 40.27V24.9721H0Z" fill="#61459C"/><path d="M30.5955 24.9721C30.5955 26.9811 30.2001 28.9704 29.4314 30.8264C28.6626 32.6824 27.5358 34.3688 26.115 35.7894C24.6945 37.2099 23.0081 38.3368 21.152 39.1056C19.2961 39.8744 17.3067 40.27 15.2979 40.27V24.9721H30.5955Z" fill="#A992DB"/><path d="M40.0277 11.7562C40.0277 18.0999 34.885 23.2424 28.5414 23.2424H17.0553V11.7562C17.0553 5.41257 22.1979 0.269989 28.5414 0.269989C34.885 0.269989 40.0277 5.41257 40.0277 11.7562Z" fill="#FF7917"/></g>
        <g id="logotype" transform="translate(47, 8)"><path fill="#FFF" d="M19.43 27.34L19.43 27.34Q16.05 27.34 13.37 25.80Q10.70 24.27 9.15 21.34Q7.61 18.42 7.61 14.29L7.61 14.29Q7.61 10.13 9.16 7.20Q10.72 4.27 13.40 2.73Q16.08 1.19 19.43 1.19L19.43 1.19Q21.60 1.19 23.47 1.80Q25.35 2.41 26.80 3.57Q28.25 4.73 29.17 6.42Q30.10 8.10 30.39 10.23L30.39 10.23L25.11 10.23Q24.94 9.19 24.45 8.38Q23.96 7.57 23.24 7.00Q22.51 6.42 21.57 6.12Q20.63 5.83 19.54 5.83L19.54 5.83Q17.55 5.83 16.05 6.82Q14.54 7.81 13.72 9.70Q12.90 11.58 12.90 14.29L12.90 14.29Q12.90 17.04 13.74 18.92Q14.58 20.80 16.07 21.75Q17.55 22.71 19.52 22.71L19.52 22.71Q20.61 22.71 21.54 22.41Q22.47 22.11 23.22 21.54Q23.96 20.97 24.45 20.15Q24.94 19.33 25.12 18.30L25.12 18.30L30.40 18.30Q30.20 20.06 29.35 21.69Q28.51 23.31 27.11 24.59Q25.70 25.87 23.77 26.61Q21.84 27.34 19.43 27.34ZM31.80 1.54L36.93 1.54L36.93 27L31.80 27L31.80 1.54ZM44.35 27.38L44.35 27.38Q42.53 27.38 41.09 26.74Q39.65 26.09 38.82 24.82Q37.99 23.55 37.99 21.65L37.99 21.65Q37.99 20.06 38.58 18.98Q39.17 17.91 40.18 17.26Q41.20 16.61 42.49 16.27Q43.78 15.93 45.20 15.79L45.20 15.79Q46.86 15.62 47.87 15.47Q48.89 15.33 49.36 15.01Q49.83 14.70 49.83 14.08L49.83 14.08L49.83 13.99Q49.83 13.17 49.49 12.61Q49.15 12.05 48.48 11.75Q47.81 11.45 46.84 11.45L46.84 11.45Q45.85 11.45 45.11 11.75Q44.38 12.05 43.92 12.54Q43.46 13.04 43.23 13.65L43.23 13.65L38.53 12.87Q39.03 11.21 40.18 10.05Q41.32 8.88 43.02 8.27Q44.72 7.65 46.84 7.65L46.84 7.65Q48.40 7.65 49.85 8.02Q51.30 8.39 52.45 9.16Q53.61 9.93 54.28 11.16Q54.96 12.39 54.96 14.13L54.96 14.13L54.96 27L50.10 27L50.10 24.35L49.93 24.35Q49.47 25.24 48.70 25.91Q47.93 26.59 46.85 26.98Q45.76 27.38 44.35 27.38ZM45.80 23.77L45.80 23.77Q47.01 23.77 47.93 23.29Q48.84 22.81 49.35 21.99Q49.87 21.17 49.87 20.16L49.87 20.16L49.87 18.10Q49.64 18.27 49.18 18.40Q48.72 18.54 48.16 18.64Q47.59 18.75 47.05 18.83Q46.50 18.92 46.07 18.97L46.07 18.97Q45.13 19.10 44.41 19.41Q43.70 19.72 43.30 20.22Q42.91 20.73 42.91 21.51L42.91 21.51Q42.91 22.25 43.29 22.75Q43.66 23.26 44.30 23.51Q44.94 23.77 45.80 23.77ZM62.19 27L57.06 27L57.06 7.89L62.01 7.89L62.01 11.23L62.22 11.23Q62.75 9.45 63.99 8.54Q65.23 7.64 66.83 7.64L66.83 7.64Q67.23 7.64 67.68 7.68Q68.13 7.72 68.49 7.81L68.49 7.81L68.49 12.39Q68.15 12.27 67.50 12.20Q66.85 12.13 66.27 12.13L66.27 12.13Q65.11 12.13 64.17 12.64Q63.23 13.14 62.71 14.04Q62.19 14.93 62.19 16.13L62.19 16.13L62.19 27ZM74.16 27L69.04 27L69.04 7.89L74.16 7.89L74.16 27ZM71.60 5.40L71.60 5.40Q70.44 5.40 69.62 4.63Q68.80 3.86 68.80 2.77L68.80 2.77Q68.80 1.67 69.62 0.90Q70.44 0.13 71.60 0.13L71.60 0.13Q72.76 0.13 73.59 0.90Q74.42 1.66 74.42 2.77L74.42 2.77Q74.42 3.86 73.59 4.63Q72.76 5.40 71.60 5.40ZM81.58 27L76.37 27L76.37 1.54L93.11 1.54L93.11 5.86L81.58 5.86L81.58 12.97L91.99 12.97L91.99 17.22L81.58 17.22L81.58 27ZM99.64 27L94.51 27L94.51 7.89L99.64 7.89L99.64 27ZM97.08 5.40L97.08 5.40Q95.91 5.40 95.09 4.63Q94.27 3.86 94.27 2.77L94.27 2.77Q94.27 1.67 95.09 0.90Q95.91 0.13 97.08 0.13L97.08 0.13Q98.24 0.13 99.07 0.90Q99.90 1.66 99.90 2.77L99.90 2.77Q99.90 3.86 99.07 4.63Q98.24 5.40 97.08 5.40Z"/></g>
        
      </svg>
    